# xmcd CD database file
#
# Track frame offsets:
#	150
#	15100
#	33698
#	46812
#	66358
#	81796
#	96420
#	115938
#	133761
#	150358
#	182777
#	200627
#	215256
#	233889
#	253086
#	272343
#	288521
#	310771
#	334738
#
# Disc length: 4674 seconds
#
# Revision: 1
# Processed by: cddbd v1.5.2PL0 Copyright (c) Steve Scherf et al.
# Submitted via: CDex 1.51
#
DISCID=0b124013
DTITLE=Katie Melua - Live At The O2 Arena
DYEAR=2009
DGENRE=Blues
TTITLE0=Piece by Piece
TTITLE1=Lilac Wine
TTITLE2=Kviteli Potlebi (Yellow Leaves)
TTITLE3=My Aphrodisiac Is You
TTITLE4=Crawling Up a Hill
TTITLE5=Mary Pickford
TTITLE6=Blues in the Night
TTITLE7=If You Were a Sailboat
TTITLE8=Ghost Town
TTITLE9=Perfect Circle
TTITLE10=Spider's Web
TTITLE11=Toy Collection
TTITLE12=Scary Films
TTITLE13=Mockingbird Song
TTITLE14=The Closest Thing To Crazy
TTITLE15=Nine Million Bicycles
TTITLE16=On the Road Again
TTITLE17=Kozmic Blues
TTITLE18=I Cried for You
EXTD=YEAR: 2009
EXTT0=
EXTT1=
EXTT2=
EXTT3=
EXTT4=
EXTT5=
EXTT6=
EXTT7=
EXTT8=
EXTT9=
EXTT10=
EXTT11=
EXTT12=
EXTT13=
EXTT14=
EXTT15=
EXTT16=
EXTT17=
EXTT18=
PLAYORDER=
